ffmpeg version 3.4.8-0ubuntu0.2 Copyright (c) 2000-2020 the FFmpeg developers
  built with gcc 7 (Ubuntu 7.5.0-3ubuntu1~18.04)
  configuration: --prefix=/usr --extra-version=0ubuntu0.2 --toolchain=hardened --libdir=/usr/lib/x86_64-linux-gnu --incdir=/usr/include/x86_64-linux-gnu --enable-gpl --disable-stripping --enable-avresample --enable-avisynth --enable-gnutls --enable-ladspa --enable-libass --enable-libbluray --enable-libbs2b --enable-libcaca --enable-libcdio --enable-libflite --enable-libfontconfig --enable-libfreetype --enable-libfribidi --enable-libgme --enable-libgsm --enable-libmp3lame --enable-libmysofa --enable-libopenjpeg --enable-libopenmpt --enable-libopus --enable-libpulse --enable-librubberband --enable-librsvg --enable-libshine --enable-libsnappy --enable-libsoxr --enable-libspeex --enable-libssh --enable-libtheora --enable-libtwolame --enable-libvorbis --enable-libvpx --enable-libwavpack --enable-libwebp --enable-libx265 --enable-libxml2 --enable-libxvid --enable-libzmq --enable-libzvbi --enable-omx --enable-openal --enable-opengl --enable-sdl2 --enable-libdc1394 --enable-libdrm --enable-libiec61883 --enable-chromaprint --enable-frei0r --enable-libopencv --enable-libx264 --enable-shared
  libavutil      55. 78.100 / 55. 78.100
  libavcodec     57.107.100 / 57.107.100
  libavformat    57. 83.100 / 57. 83.100
  libavdevice    57. 10.100 / 57. 10.100
  libavfilter     6.107.100 /  6.107.100
  libavresample   3.  7.  0 /  3.  7.  0
  libswscale      4.  8.100 /  4.  8.100
  libswresample   2.  9.100 /  2.  9.100
  libpostproc    54.  7.100 / 54.  7.100
[rawvideo @ 0x557ef0641a20] Estimating duration from bitrate, this may be inaccurate
Input #0, rawvideo, from '../../SVC-Encoder-20220109T061506Z-001/SVC-Encoder/Dataset/RollerCoaster/ERP_8x8/tile_yuv/Tile_3_480x240.yuv':
  Duration: 00:00:10.00, start: 0.000000, bitrate: 41472 kb/s
    Stream #0:0: Video: rawvideo (I420 / 0x30323449), yuv420p, 480x240, 41472 kb/s, 30 tbr, 30 tbn, 30 tbc
Stream mapping:
  Stream #0:0 -> #0:0 (rawvideo (native) -> h264 (libx264))
Press [q] to stop, [?] for help
[libx264 @ 0x557ef064ec60] using cpu capabilities: MMX2 SSE2Fast LZCNT SSSE3 SSE4.2 AVX
[libx264 @ 0x557ef064ec60] profile High, level 2.1
Output #0, rawvideo, to 'RollerCoaster_Tile_3_480x240_x264_QP_28.h264':
  Metadata:
    encoder         : Lavf57.83.100
    Stream #0:0: Video: h264 (libx264), yuv420p, 480x240, q=-1--1, 30 fps, 30 tbn, 30 tbc
    Metadata:
      encoder         : Lavc57.107.100 libx264
    Side data:
      cpb: bitrate max/min/avg: 0/0/0 buffer size: 0 vbv_delay: -1
frame=  300 fps=0.0 q=34.0 LPSNR=Y:inf U:inf V:inf *:inf size=       7kB time=00:00:09.93 bitrate=   5.5kbits/s speed=43.7x    
video:7kB audio:0kB subtitle:0kB other streams:0kB global headers:0kB muxing overhead: 0.000000%
[libx264 @ 0x557ef064ec60] frame I:2     Avg QP:26.44  size:   658  PSNR Mean Y:54.88 U:54.83 V:52.31 Avg:54.32 Global:54.21
[libx264 @ 0x557ef064ec60] frame P:76    Avg QP:29.42  size:    31  PSNR Mean Y:52.78 U:53.73 V:51.31 Avg:52.62 Global:52.56
[libx264 @ 0x557ef064ec60] frame B:222   Avg QP:33.67  size:    14  PSNR Mean Y:52.82 U:53.77 V:51.30 Avg:52.65 Global:52.58
[libx264 @ 0x557ef064ec60] consecutive B-frames:  1.3%  0.0%  0.0% 98.7%
[libx264 @ 0x557ef064ec60] mb I  I16..4: 99.9%  0.1%  0.0%
[libx264 @ 0x557ef064ec60] mb P  I16..4:  0.2%  0.4%  0.0%  P16..4:  0.5%  0.1%  0.0%  0.0%  0.0%    skip:98.8%
[libx264 @ 0x557ef064ec60] mb B  I16..4:  0.0%  0.0%  0.0%  B16..8:  0.0%  0.0%  0.0%  direct: 0.0%  skip:100.0%  L0: 0.0% L1:100.0% BI: 0.0%
[libx264 @ 0x557ef064ec60] 8x8 transform intra:13.2%
[libx264 @ 0x557ef064ec60] coded y,uvDC,uvAC intra: 0.0% 6.1% 0.0% inter: 0.0% 0.0% 0.0%
[libx264 @ 0x557ef064ec60] i16 v,h,dc,p: 35% 54%  8%  3%
[libx264 @ 0x557ef064ec60] i8 v,h,dc,ddl,ddr,vr,hd,vl,hu:  1%  6% 93%  0%  0%  0%  0%  0%  0%
[libx264 @ 0x557ef064ec60] i8c dc,h,v,p: 89%  8%  3%  0%
[libx264 @ 0x557ef064ec60] Weighted P-Frames: Y:0.0% UV:0.0%
[libx264 @ 0x557ef064ec60] ref P L0: 70.9%  7.1% 20.3%  1.7%
[libx264 @ 0x557ef064ec60] PSNR Mean Y:52.820 U:53.764 V:51.310 Avg:52.652 Global:52.581 kb/s:5.49
